<?xml version="1.0" encoding="UTF-8" standalone="no"?>
<svg
   width="60mm"
   height="42.439457mm"
   viewBox="0 0 212.59843 150.37602"
   id="svg4267"
   version="1.1"
   inkscape:version="1.3 (0e150ed6c4, 2023-07-21)"
   sodipodi:docname="dog_logo.svg"
   inkscape:export-filename="dog_logo.png"
   inkscape:export-xdpi="96"
   inkscape:export-ydpi="96"
   xmlns:inkscape="http://www.inkscape.org/namespaces/inkscape"
   xmlns:sodipodi="http://sodipodi.sourceforge.net/DTD/sodipodi-0.dtd"
   xmlns="http://www.w3.org/2000/svg"
   xmlns:svg="http://www.w3.org/2000/svg"
   xmlns:rdf="http://www.w3.org/1999/02/22-rdf-syntax-ns#"
   xmlns:cc="http://creativecommons.org/ns#"
   xmlns:dc="http://purl.org/dc/elements/1.1/">
  <defs
     id="defs4269" />
  <sodipodi:namedview
     id="base"
     pagecolor="#ffffff"
     bordercolor="#666666"
     borderopacity="1.0"
     inkscape:pageopacity="0.0"
     inkscape:pageshadow="2"
     inkscape:zoom="7.9195959"
     inkscape:cx="23.991123"
     inkscape:cy="20.708127"
     inkscape:document-units="mm"
     inkscape:current-layer="g4875"
     showgrid="false"
     inkscape:window-width="1600"
     inkscape:window-height="873"
     inkscape:window-x="0"
     inkscape:window-y="27"
     inkscape:window-maximized="1"
     inkscape:document-rotation="0"
     fit-margin-top="0"
     fit-margin-left="0"
     fit-margin-right="0"
     fit-margin-bottom="0"
     inkscape:pagecheckerboard="0"
     inkscape:showpageshadow="2"
     inkscape:deskcolor="#d1d1d1" />
  <metadata
     id="metadata4272">
    <rdf:RDF>
      <cc:Work
         rdf:about="">
        <dc:format>image/svg+xml</dc:format>
        <dc:type
           rdf:resource="http://purl.org/dc/dcmitype/StillImage" />
      </cc:Work>
    </rdf:RDF>
  </metadata>
  <g
     inkscape:label="Layer 1"
     inkscape:groupmode="layer"
     id="layer1"
     transform="translate(-95.589287,-968.73337)">
    <g
       id="g4875"
       transform="matrix(-0.28467181,0,0,0.27766676,176.62265,706.17767)"
       style="stroke:none;stroke-width:3.55685">
      <path
         sodipodi:nodetypes="ccccccssscsscsscscscsssscscccccsccsccccscscssscccccccc"
         inkscape:connector-curvature="0"
         id="path4614"
         d="m 122.56462,1422.7875 40.12725,-64.2501 -8.38034,-8.041 -8.38104,-8.0465 18.60974,-60.4483 18.60953,-60.455 -13.03963,-26.551 c -7.17211,-14.6011 -13.06118,-27.2623 -13.08773,-28.1359 -0.03,-0.851 29.14267,-30.4114 64.81949,-65.6398 35.6766,-35.2333 63.92745,-64.3407 62.77972,-64.6844 -1.14638,-0.5304 -37.15979,22.6106 -80.02665,51.0097 -42.86736,28.4059 -79.9188,51.702 -82.3373,51.7709 -4.25093,0 -291.79408,-33.4315 -300.18741,-35.0357 -2.28353,-0.5287 -37.28889,-29.9536 -77.79345,-65.5948 -59.63887,-52.47262 -78.13274,-67.55715 -97.24793,-79.29675 -12.97905,-7.97093 -24.45554,-14.17874 -25.49692,-13.7934 -1.02929,0.53026 3.58058,8.77066 10.28004,18.62347 l 12.18614,17.91377 -53.14373,55.04671 c -29.22681,30.2699 -53.08708,55.7209 -53.01823,56.5465 0,0.8508 7.61866,5.5702 16.77675,10.5288 12.65272,6.8549 19.48394,12.3178 28.43692,22.7487 6.48209,7.5487 12.27778,13.7131 12.88191,13.6905 0.60002,0 12.81554,-8.7369 27.13425,-19.3828 14.31802,-10.6397 26.97938,-19.0668 28.13542,-18.7184 1.14652,0.5302 12.4296,13.214 25.05391,28.5874 l 22.9542,27.9542 -7.4628,23.1406 -7.461,23.142 14.16254,17.0611 14.1648,17.0693 -9.31034,103.3428 c -5.11913,56.837 -9.72915,106.3514 -10.24049,110.0287 l -0.933,6.695 -12.96624,0.5403 c -15.44856,0.54 -18.00756,2.7869 -16.73947,15.2069 l 0.91687,8.8341 26.50546,-0.804 26.50648,-0.8037 27.99024,-97.008 c 15.39494,-53.3525 29.01833,-97.3839 30.27427,-97.8447 2.2728,-0.851 242.355287,7.5005 262.694758,9.1191 10.509455,0.851 10.682615,0.9633 11.517215,8.1909 0.804168,6.9576 2.535528,8.4526 32.955527,28.4794 17.658743,11.6273 32.49151,21.5009 32.96145,21.9403 0.483,0.54 -9.30112,25.0006 -21.713778,54.5746 l -22.568256,53.7652 -10.156175,0.804 c -19.022927,1.5548 -19.644695,1.9839 -18.616055,12.9024 l 0.912072,9.638 h 19.923983 l 19.923887,-0.024 40.127322,-64.2504 z"
         style="fill:#000000;fill-opacity:1;stroke:none;stroke-width:3.55404;stroke-miterlimit:4;stroke-dasharray:none;stroke-opacity:1" />
    </g>
  </g>
</svg>
