<?xml version="1.0" encoding="UTF-8" standalone="no"?>
<!-- Created with Inkscape (http://www.inkscape.org/) -->

<svg
   width="47.269608mm"
   height="7.4706655mm"
   viewBox="0 0 47.269609 7.4706655"
   version="1.1"
   id="svg1"
   inkscape:version="1.3.2 (091e20ef0f, 2023-11-25, custom)"
   sodipodi:docname="kludge_deck.svg"
   xmlns:inkscape="http://www.inkscape.org/namespaces/inkscape"
   xmlns:sodipodi="http://sodipodi.sourceforge.net/DTD/sodipodi-0.dtd"
   xmlns="http://www.w3.org/2000/svg"
   xmlns:svg="http://www.w3.org/2000/svg">
  <sodipodi:namedview
     id="namedview1"
     pagecolor="#ffffff"
     bordercolor="#000000"
     borderopacity="0.25"
     inkscape:showpageshadow="2"
     inkscape:pageopacity="0.0"
     inkscape:pagecheckerboard="0"
     inkscape:deskcolor="#d1d1d1"
     inkscape:document-units="mm"
     inkscape:zoom="0.62359708"
     inkscape:cx="602.15163"
     inkscape:cy="117.86457"
     inkscape:window-width="1920"
     inkscape:window-height="1037"
     inkscape:window-x="0"
     inkscape:window-y="0"
     inkscape:window-maximized="1"
     inkscape:current-layer="text3" />
  <defs
     id="defs1" />
  <g
     inkscape:label="Layer 1"
     inkscape:groupmode="layer"
     id="layer1"
     transform="translate(-30.330752,-45.777085)">
    <g
       id="text3">
      <path
         style="color:#000000;-inkscape-font-specification:'URW Gothic, Semi-Bold';fill:#000000;stroke-linejoin:round;-inkscape-stroke:none"
         d="m 30.340752,51.522545 h 1.032227 v -2.010128 l 1.46685,2.010128 h 1.389239 l -1.785055,-2.196394 1.536699,-2.103261 h -1.234016 l -1.373717,2.02565 v -3.461455 h -1.032227 z m 4.37726,0 h 1.032227 v -5.73546 h -1.032227 z m 5.688891,-4.299655 h -1.032227 v 2.02565 c 0,0.574322 -0.03881,0.845961 -0.162984,1.032227 -0.147461,0.256117 -0.434622,0.395817 -0.783872,0.395817 -0.263877,0 -0.465666,-0.08537 -0.605366,-0.271639 -0.147461,-0.186267 -0.20955,-0.496711 -0.20955,-1.078794 V 47.22289 h -1.032228 v 2.30505 c 0,0.729544 0.08537,1.109838 0.325967,1.459088 0.287161,0.411339 0.745066,0.636411 1.311627,0.636411 0.519995,0 0.8382,-0.131939 1.234017,-0.512233 v 0.411339 h 0.954616 z m 5.168902,-1.435805 h -1.032227 v 1.816099 c -0.302684,-0.333727 -0.799395,-0.535516 -1.334911,-0.535516 -1.210733,0 -2.157589,1.008944 -2.157589,2.297288 0,1.280583 0.931333,2.258483 2.157589,2.258483 0.582083,0 1.001183,-0.194027 1.420283,-0.659694 v 0.5588 h 0.946855 z m -2.227438,2.227438 c 0.721783,0 1.272822,0.574322 1.272822,1.334911 0,0.745067 -0.551039,1.32715 -1.249539,1.32715 -0.721783,0 -1.280583,-0.589844 -1.280583,-1.358194 0,-0.737306 0.551039,-1.303867 1.2573,-1.303867 z m 6.410671,-0.791633 v 0.543278 c -0.325967,-0.434622 -0.783872,-0.644172 -1.404761,-0.644172 -1.218494,0 -2.118783,0.946855 -2.118783,2.219677 0,1.32715 0.884767,2.281766 2.111022,2.281766 0.605366,0 1.008944,-0.194027 1.412522,-0.667455 -0.03881,0.923572 -0.434622,1.373716 -1.202972,1.373716 -0.481189,0 -0.776111,-0.124177 -1.078794,-0.457905 h -1.171928 c 0.34925,0.861483 1.156405,1.365955 2.211916,1.365955 0.776111,0 1.389239,-0.271639 1.792817,-0.783872 0.302683,-0.395817 0.434622,-0.923572 0.434622,-1.74625 V 47.22289 Z m -1.288344,0.845961 c 0.737305,0 1.241777,0.527755 1.241777,1.319389 0,0.776111 -0.481189,1.288344 -1.226255,1.288344 -0.737306,0 -1.210733,-0.504472 -1.210733,-1.288344 0,-0.791634 0.473427,-1.319389 1.195211,-1.319389 z m 7.373047,1.761772 c 0.03104,-0.155222 0.0388,-0.248356 0.0388,-0.403578 0,-1.32715 -0.939094,-2.305049 -2.219677,-2.305049 -1.265061,0 -2.266244,1.001183 -2.266244,2.266244 0,1.257299 1.016705,2.235199 2.328333,2.235199 0.706261,0 1.2573,-0.256116 1.707444,-0.776111 0.162983,-0.201789 0.271639,-0.380294 0.341489,-0.597605 H 54.64853 c -0.263878,0.310444 -0.519994,0.426861 -0.946855,0.426861 -0.613128,0 -1.063272,-0.325967 -1.18745,-0.845961 z m -3.360561,-0.90805 c 0.162984,-0.5588 0.582084,-0.853722 1.195211,-0.853722 0.636411,0 1.055511,0.302683 1.18745,0.853722 z m 10.578393,-3.135488 h -1.032228 v 1.816099 c -0.302683,-0.333727 -0.799394,-0.535516 -1.334911,-0.535516 -1.210733,0 -2.157588,1.008944 -2.157588,2.297288 0,1.280583 0.931333,2.258483 2.157588,2.258483 0.582083,0 1.001183,-0.194027 1.420283,-0.659694 v 0.5588 h 0.946856 z m -2.227439,2.227438 c 0.721783,0 1.272822,0.574322 1.272822,1.334911 0,0.745067 -0.551039,1.32715 -1.249539,1.32715 -0.721783,0 -1.280583,-0.589844 -1.280583,-1.358194 0,-0.737306 0.551039,-1.303867 1.2573,-1.303867 z m 7.272159,1.8161 c 0.03105,-0.155222 0.03881,-0.248356 0.03881,-0.403578 0,-1.32715 -0.939095,-2.305049 -2.219678,-2.305049 -1.265061,0 -2.266244,1.001183 -2.266244,2.266244 0,1.257299 1.016706,2.235199 2.328333,2.235199 0.706261,0 1.2573,-0.256116 1.707444,-0.776111 0.162984,-0.201789 0.271639,-0.380294 0.341489,-0.597605 h -1.125361 c -0.263878,0.310444 -0.519994,0.426861 -0.946855,0.426861 -0.613128,0 -1.063272,-0.325967 -1.18745,-0.845961 z m -3.36056,-0.90805 c 0.162983,-0.5588 0.582083,-0.853722 1.195211,-0.853722 0.636411,0 1.05551,0.302683 1.187449,0.853722 z m 7.147977,1.18745 c -0.256116,0.395816 -0.551038,0.566561 -0.9779,0.566561 -0.714022,0 -1.249538,-0.5588 -1.249538,-1.311628 0,-0.760588 0.504472,-1.296105 1.226255,-1.296105 0.465667,0 0.791633,0.194028 1.001183,0.589844 h 1.164167 c -0.147461,-0.434622 -0.287161,-0.659694 -0.582083,-0.931333 -0.4191,-0.388055 -0.985661,-0.605366 -1.583267,-0.605366 -1.272822,0 -2.266244,0.985661 -2.266244,2.250721 0,1.249539 1.024467,2.250722 2.297289,2.250722 1.008944,0 1.777294,-0.551039 2.134305,-1.513416 z m 1.808332,1.412522 h 1.032227 v -2.010128 l 1.46685,2.010128 h 1.389239 l -1.785055,-2.196394 1.536699,-2.103261 h -1.234016 l -1.373717,2.02565 v -3.461455 h -1.032227 z"
         id="path4" />
      <path
         style="color:#000000;-inkscape-font-specification:'URW Gothic, Semi-Bold';fill:#000000;stroke-linejoin:round;-inkscape-stroke:none"
         d="m 30.339844,45.777344 a 0.010001,0.010001 0 0 0 -0.0098,0.0098 v 5.736328 a 0.010001,0.010001 0 0 0 0.0098,0.0098 h 1.033203 a 0.010001,0.010001 0 0 0 0.0098,-0.0098 v -1.982421 l 1.449219,1.988281 a 0.010001,0.010001 0 0 0 0.0078,0.0039 h 1.388672 a 0.010001,0.010001 0 0 0 0.0078,-0.01758 l -1.779297,-2.189453 1.53125,-2.097656 a 0.010001,0.010001 0 0 0 -0.0078,-0.01563 h -1.234375 a 0.010001,0.010001 0 0 0 -0.0078,0.0039 l -1.355469,2 v -3.429688 a 0.010001,0.010001 0 0 0 -0.0098,-0.0098 z m 4.378906,0 a 0.010001,0.010001 0 0 0 -0.0098,0.0098 v 5.736328 a 0.010001,0.010001 0 0 0 0.0098,0.0098 H 35.75 a 0.010001,0.010001 0 0 0 0.0098,-0.0098 v -5.736328 a 0.010001,0.010001 0 0 0 -0.0098,-0.0098 z m 9.824219,0 a 0.010001,0.010001 0 0 0 -0.0098,0.0098 v 1.800782 c -0.30601,-0.328279 -0.793347,-0.529297 -1.324219,-0.529297 -1.216287,0 -2.167968,1.013398 -2.167968,2.30664 0,1.285431 0.936397,2.267578 2.167968,2.267578 0.577164,0 0.994814,-0.199438 1.410157,-0.654296 v 0.544921 a 0.010001,0.010001 0 0 0 0.0098,0.0098 h 0.947266 a 0.010001,0.010001 0 0 0 0.0098,-0.0098 v -5.736328 a 0.010001,0.010001 0 0 0 -0.0098,-0.0098 z m 17.486328,0 a 0.010001,0.010001 0 0 0 -0.0098,0.0098 v 1.800782 c -0.306008,-0.328279 -0.793346,-0.529297 -1.324219,-0.529297 -1.216287,0 -2.167968,1.013398 -2.167968,2.30664 0,1.285431 0.936398,2.267578 2.167968,2.267578 0.577164,0 0.994815,-0.199438 1.410157,-0.654296 v 0.544921 a 0.010001,0.010001 0 0 0 0.0098,0.0098 H 63.0625 a 0.010001,0.010001 0 0 0 0.0098,-0.0098 v -5.736328 a 0.010001,0.010001 0 0 0 -0.0098,-0.0098 z m 11.671875,0 a 0.010001,0.010001 0 0 0 -0.0098,0.0098 v 5.736328 a 0.010001,0.010001 0 0 0 0.0098,0.0098 h 1.033203 a 0.010001,0.010001 0 0 0 0.0098,-0.0098 v -1.982421 l 1.449218,1.988281 a 0.010001,0.010001 0 0 0 0.0078,0.0039 h 1.388672 a 0.010001,0.010001 0 0 0 0.0078,-0.01758 l -1.779297,-2.189453 1.53125,-2.097656 a 0.010001,0.010001 0 0 0 -0.0078,-0.01563 h -1.234375 a 0.010001,0.010001 0 0 0 -0.0078,0.0039 l -1.355468,2 v -3.429688 a 0.010001,0.010001 0 0 0 -0.0098,-0.0098 z m -43.34961,0.01953 h 1.011719 v 3.451172 a 0.010001,0.010001 0 0 0 0.01758,0.0059 l 1.371094,-2.021484 h 1.208984 l -1.52539,2.08789 a 0.010001,0.010001 0 0 0 0,0.01172 l 1.771484,2.179688 h -1.361328 l -1.464844,-2.00586 a 0.010001,0.010001 0 0 0 -0.01758,0.0059 v 2 h -1.011719 z m 4.376954,0 h 1.011718 v 5.714844 h -1.011718 z m 9.824218,0 h 1.013672 v 5.714844 h -0.927734 v -0.548828 a 0.010001,0.010001 0 0 0 -0.01758,-0.0059 c -0.417806,0.464229 -0.832249,0.65625 -1.41211,0.65625 -1.220938,0 -2.148437,-0.972313 -2.148437,-2.248047 0,-1.283443 0.943261,-2.287109 2.148437,-2.287109 0.533004,0 1.027751,0.20007 1.328125,0.53125 a 0.010001,0.010001 0 0 0 0.01563,-0.0059 z m 17.486328,0 h 1.011719 v 5.714844 H 62.125 v -0.548828 a 0.010001,0.010001 0 0 0 -0.01758,-0.0059 c -0.417806,0.464229 -0.832249,0.65625 -1.41211,0.65625 -1.220937,0 -2.148437,-0.972313 -2.148437,-2.248047 0,-1.283443 0.943261,-2.287109 2.148437,-2.287109 0.533005,0 1.025799,0.20007 1.326172,0.53125 a 0.010001,0.010001 0 0 0 0.01758,-0.0059 z m 11.673829,0 h 1.011718 v 3.451172 a 0.010001,0.010001 0 0 0 0.01758,0.0059 l 1.371094,-2.021484 h 1.208985 l -1.525391,2.08789 a 0.010001,0.010001 0 0 0 0,0.01172 l 1.771484,2.179688 h -1.361328 l -1.464844,-2.00586 a 0.010001,0.010001 0 0 0 -0.01758,0.0059 v 2 h -1.011718 z m -25.359375,1.314453 c -1.223674,0 -2.128907,0.952933 -2.128907,2.230469 0,1.331593 0.88965,2.291015 2.121094,2.291015 0.597377,0 1.000197,-0.200329 1.398438,-0.658203 -0.02228,0.447289 -0.126303,0.78649 -0.320313,1.007813 -0.197751,0.22559 -0.484966,0.337891 -0.867187,0.33789 -0.479468,0 -0.770926,-0.12283 -1.072266,-0.455078 a 0.010001,0.010001 0 0 0 -0.0078,-0.0039 h -1.171875 a 0.010001,0.010001 0 0 0 -0.0078,0.01367 c 0.350754,0.865194 1.162007,1.373047 2.220703,1.373047 0.778444,0 1.39522,-0.27236 1.800781,-0.78711 a 0.010001,0.010001 0 0 0 0,-0.002 c 0.304437,-0.398109 0.435547,-0.928206 0.435547,-1.751953 v -3.484375 a 0.010001,0.010001 0 0 0 -0.0098,-0.0098 h -0.984375 a 0.010001,0.010001 0 0 0 -0.0098,0.0098 v 0.529297 c -0.326966,-0.426068 -0.781051,-0.640625 -1.396484,-0.640625 z m 5.308593,0 c -1.270335,0 -2.27539,1.007008 -2.27539,2.277344 0,1.262689 1.021293,2.244141 2.33789,2.24414 0.708678,0 1.263121,-0.257477 1.714844,-0.779296 0.163429,-0.202342 0.273464,-0.382895 0.34375,-0.601563 a 0.010001,0.010001 0 0 0 -0.0098,-0.01172 h -1.125 a 0.010001,0.010001 0 0 0 -0.0078,0.0039 c -0.262609,0.30895 -0.514411,0.421875 -0.939453,0.421875 -0.603748,0 -1.041882,-0.319177 -1.169922,-0.826172 h 3.3125 a 0.010001,0.010001 0 0 0 0.0098,-0.0078 c 0.03113,-0.155662 0.03906,-0.248741 0.03906,-0.404297 0,-1.331866 -0.944796,-2.316406 -2.230469,-2.316406 z m 12.263672,0 c -1.270336,0 -2.277343,1.007008 -2.277344,2.277344 0,1.262689 1.023248,2.24414 2.339844,2.24414 0.708678,0 1.263121,-0.257477 1.714844,-0.779296 0.16343,-0.202342 0.273464,-0.382895 0.34375,-0.601563 a 0.010001,0.010001 0 0 0 -0.0098,-0.01172 h -1.126953 a 0.010001,0.010001 0 0 0 -0.0059,0.0039 c -0.262609,0.30895 -0.514411,0.421875 -0.939453,0.421875 -0.603748,0 -1.041882,-0.319177 -1.169922,-0.826172 h 3.310547 a 0.010001,0.010001 0 0 0 0.0098,-0.0078 c 0.03114,-0.155662 0.03906,-0.248741 0.03906,-0.404297 0,-1.331866 -0.942843,-2.316406 -2.228516,-2.316406 z m 4.966797,0 c -1.277983,0 -2.27539,0.991425 -2.275391,2.261719 10e-7,1.255003 1.028577,2.259765 2.306641,2.259765 1.012584,0 1.784373,-0.553935 2.142578,-1.519531 a 0.010001,0.010001 0 0 0 -0.0078,-0.01367 h -1.164063 a 0.010001,0.010001 0 0 0 -0.0098,0.0059 c -0.254927,0.393977 -0.544555,0.560547 -0.96875,0.560547 -0.708804,0 -1.240235,-0.552697 -1.240235,-1.300782 0,-0.756165 0.499961,-1.287109 1.216797,-1.287109 0.462889,0 0.784012,0.192718 0.992188,0.585937 a 0.010001,0.010001 0 0 0 0.0098,0.0039 h 1.164063 a 0.010001,0.010001 0 0 0 0.0078,-0.01172 c -0.147741,-0.435447 -0.288195,-0.663109 -0.583984,-0.935547 -0.421031,-0.389842 -0.989814,-0.609375 -1.589844,-0.609375 z m -22.539062,0.02148 c 0.618638,0 1.074242,0.206413 1.398437,0.638672 a 0.010001,0.010001 0 0 0 0.01758,-0.0059 v -0.533203 h 0.964844 v 3.474609 c 0,0.821608 -0.130712,1.346711 -0.431641,1.740235 -0.401594,0.509715 -1.011379,0.78125 -1.785156,0.78125 -1.04507,0 -1.839841,-0.500677 -2.191406,-1.347657 h 1.148437 c 0.30287,0.33243 0.600907,0.458985 1.082032,0.458985 0.386127,0 0.680867,-0.113376 0.882812,-0.34375 0.200801,-0.22907 0.307765,-0.574006 0.328125,-1.033203 1.16e-4,-0.0026 0.0018,-0.0032 0.002,-0.0059 a 0.010001,0.010001 0 0 0 -0.01758,-0.0078 c -0.402317,0.471949 -0.803021,0.664062 -1.40625,0.664062 -1.221064,0 -2.099609,-0.94878 -2.099609,-2.271484 0,-1.268105 0.894109,-2.208984 2.107422,-2.208985 z m 5.308593,0 c 1.275491,0 2.210938,0.972491 2.210938,2.294922 0,0.151895 -0.0096,0.243124 -0.03906,0.392578 h -3.320312 a 0.010001,0.010001 0 0 0 -0.0098,0.01172 c 0.125227,0.524386 0.580594,0.855469 1.197266,0.855469 0.425109,0 0.684389,-0.121586 0.947265,-0.427734 h 1.107422 c -0.06927,0.208456 -0.172318,0.384424 -0.330078,0.580078 -4.27e-4,4.93e-4 -0.0015,-4.93e-4 -0.002,0 -4.01e-4,4.97e-4 4.02e-4,0.0015 0,0.002 -0.448216,0.516724 -0.99635,0.771484 -1.699219,0.771484 -1.306656,0 -2.318359,-0.972702 -2.318359,-2.224609 0,-1.259784 0.996076,-2.25586 2.255859,-2.25586 z m 12.263672,0 c 1.275491,0 2.208985,0.972491 2.208985,2.294922 0,0.151895 -0.0096,0.243124 -0.03906,0.392578 h -3.318359 a 0.010001,0.010001 0 0 0 -0.0098,0.01172 c 0.125227,0.524386 0.580594,0.855469 1.197266,0.855469 0.425103,0 0.68244,-0.121596 0.945312,-0.427734 h 1.109375 c -0.06937,0.208758 -0.173891,0.384075 -0.332031,0.580078 -0.448564,0.518169 -0.995376,0.773437 -1.699219,0.773437 -1.306655,0 -2.318359,-0.972702 -2.318359,-2.224609 0,-1.259784 0.996076,-2.25586 2.255859,-2.25586 z m 4.966797,0 c 0.595181,0 1.159003,0.215296 1.576172,0.601563 0.289826,0.266945 0.427424,0.492439 0.572266,0.914062 h -1.146485 c -0.211145,-0.391801 -0.537387,-0.589843 -1.001953,-0.589843 -0.726728,0 -1.236328,0.541631 -1.236328,1.30664 0,0.75757 0.540527,1.322266 1.259766,1.322266 0.426244,0 0.722532,-0.177144 0.978515,-0.568359 h 0.002 1.144532 c -0.358137,0.950091 -1.11701,1.49414 -2.117188,1.49414 -1.267577,0 -2.287109,-0.996162 -2.287109,-2.240234 0,-1.259824 0.988201,-2.240235 2.255859,-2.240235 z m -34.3125,0.08008 a 0.010001,0.010001 0 0 0 -0.0098,0.0098 v 2.304688 c 0,0.730323 0.08623,1.113711 0.328125,1.464843 0.289037,0.414026 0.751104,0.640625 1.320313,0.640625 0.514213,0 0.833478,-0.136945 1.222656,-0.505859 v 0.396484 a 0.010001,0.010001 0 0 0 0.01172,0.0098 h 0.953125 a 0.010001,0.010001 0 0 0 0.0098,-0.0098 v -4.300781 a 0.010001,0.010001 0 0 0 -0.0098,-0.0098 H 39.375 a 0.010001,0.010001 0 0 0 -0.0098,0.0098 v 2.025391 c 0,0.573871 -0.03989,0.844011 -0.162109,1.027344 -0.145444,0.252614 -0.428808,0.390625 -0.775391,0.390625 -0.26172,0 -0.459849,-0.08383 -0.597656,-0.267579 -0.144952,-0.183098 -0.207031,-0.490894 -0.207031,-1.072265 v -2.103516 a 0.010001,0.010001 0 0 0 -0.0098,-0.0098 z m 0.0098,0.01953 h 1.013672 v 2.09375 c 0,0.581783 0.06153,0.89445 0.210937,1.083984 0.141593,0.188794 0.347248,0.277344 0.613281,0.277344 0.351917,0 0.643492,-0.142725 0.792969,-0.402344 0.125578,-0.189162 0.164063,-0.463391 0.164063,-1.037109 v -2.015625 h 1.011718 v 4.279297 h -0.933593 v -0.400391 a 0.010001,0.010001 0 0 0 -0.01758,-0.0078 c -0.394719,0.379239 -0.708259,0.509765 -1.226562,0.509765 -0.563912,0 -1.019403,-0.224161 -1.304688,-0.632812 -0.239299,-0.347367 -0.324218,-0.724362 -0.324218,-1.453125 z m 6.757812,0.771484 c -0.711608,0 -1.265625,0.572166 -1.265625,1.314453 0,0.773198 0.561832,1.369141 1.289063,1.369141 0.704055,0 1.259765,-0.587894 1.259765,-1.337891 0,-0.765418 -0.556116,-1.345703 -1.283203,-1.345703 z m 17.486328,0 c -0.711608,0 -1.267578,0.572166 -1.267578,1.314453 0,0.773198 0.563786,1.369141 1.291016,1.369141 0.704055,0 1.259766,-0.587894 1.259765,-1.337891 0,-0.765418 -0.556116,-1.345703 -1.283203,-1.345703 z m -17.486328,0.02148 c 0.716478,0 1.263672,0.56846 1.263672,1.324218 0,0.740136 -0.54729,1.316407 -1.240234,1.316407 -0.716335,0 -1.269531,-0.584156 -1.269532,-1.347657 0,-0.732322 0.545182,-1.292968 1.246094,-1.292968 z m 17.486328,0 c 0.716478,0 1.263672,0.56846 1.263672,1.324218 0,0.740136 -0.54729,1.316407 -1.240234,1.316407 -0.716334,0 -1.271484,-0.584156 -1.271485,-1.347657 0,-0.732322 0.547135,-1.292968 1.248047,-1.292968 z m -12.363281,0.0332 c -0.363329,0 -0.664506,0.134175 -0.875,0.367187 -0.210494,0.233012 -0.330078,0.565081 -0.330078,0.962891 0,0.393949 0.119518,0.719089 0.332031,0.945312 0.212513,0.226224 0.517739,0.353516 0.888672,0.353516 0.374824,0 0.684974,-0.130255 0.900391,-0.357422 0.215417,-0.227167 0.335937,-0.551284 0.335937,-0.941406 0,-0.397941 -0.12743,-0.72994 -0.347656,-0.962891 -0.220226,-0.23295 -0.533259,-0.367187 -0.904297,-0.367187 z m 5.207031,0 c -0.616333,0 -1.041068,0.299013 -1.205078,0.861328 a 0.010001,0.010001 0 0 0 0.0098,0.01172 h 2.382812 a 0.010001,0.010001 0 0 0 0.0098,-0.01172 C 54.808569,48.642474 54.669643,48.42726 54.466797,48.28125 54.26395,48.13524 53.997525,48.058594 53.677734,48.058594 Z m 12.263672,0 c -0.616334,0 -1.04107,0.299013 -1.205078,0.861328 a 0.010001,0.010001 0 0 0 0.0098,0.01172 h 2.382812 a 0.010001,0.010001 0 0 0 0.0098,-0.01172 C 67.072241,48.642474 66.933315,48.42726 66.730469,48.28125 66.527622,48.13524 66.261197,48.058594 65.941406,48.058594 Z m -17.470703,0.01953 c 0.366266,0 0.674289,0.132493 0.890625,0.361328 0.216336,0.228835 0.341797,0.555526 0.341797,0.949219 0,0.385988 -0.120588,0.704757 -0.332031,0.927734 -0.211444,0.222977 -0.514525,0.34961 -0.884766,0.34961 -0.366372,0 -0.666473,-0.123723 -0.875,-0.345704 -0.208527,-0.22198 -0.326172,-0.541718 -0.326172,-0.93164 0,-0.393823 0.117554,-0.722398 0.324219,-0.951172 0.206665,-0.228774 0.502874,-0.359375 0.861328,-0.359375 z m 5.207031,0 c 0.31662,0 0.578554,0.07566 0.777344,0.21875 0.194597,0.140072 0.32553,0.350002 0.392578,0.615234 h -2.345703 c 0.165652,-0.543416 0.572577,-0.833984 1.175781,-0.833984 z m 12.263672,0 c 0.31662,0 0.578554,0.07566 0.777344,0.21875 0.194596,0.140072 0.325529,0.350002 0.392578,0.615234 h -2.345703 c 0.165656,-0.5434 0.572585,-0.833984 1.175781,-0.833984 z"
         id="path5" />
    </g>
    <text
       xml:space="preserve"
       style="font-size:3.175px;fill:#000000;stroke-width:0.264583"
       x="52.368755"
       y="75.626465"
       id="text2"><tspan
         sodipodi:role="line"
         id="tspan2"
         style="stroke-width:0.264583"
         x="52.368755"
         y="75.626465" /></text>
    <text
       xml:space="preserve"
       style="font-weight:800;font-stretch:condensed;font-size:50.8px;font-family:'Fira Sans Condensed';-inkscape-font-specification:'Fira Sans Condensed, Ultra-Bold Condensed';fill:#000000;stroke:#000000;stroke-width:0.02;stroke-linejoin:round"
       x="310.81696"
       y="93.178909"
       id="text4"><tspan
         sodipodi:role="line"
         id="tspan3"
         style="stroke-width:0.02"
         x="310.81696"
         y="93.178909" /></text>
  </g>
</svg>
