<?xml version="1.0" encoding="UTF-8" standalone="no"?>
<!-- Created with Inkscape (http://www.inkscape.org/) -->

<svg
   width="26.965759mm"
   height="5.9000001mm"
   viewBox="0 0 26.96576 5.9000001"
   version="1.1"
   id="svg1"
   inkscape:version="1.3 (0e150ed6c4, 2023-07-21)"
   sodipodi:docname="stoRPer.svg"
   xmlns:inkscape="http://www.inkscape.org/namespaces/inkscape"
   xmlns:sodipodi="http://sodipodi.sourceforge.net/DTD/sodipodi-0.dtd"
   xmlns="http://www.w3.org/2000/svg"
   xmlns:svg="http://www.w3.org/2000/svg">
  <sodipodi:namedview
     id="namedview1"
     pagecolor="#ffffff"
     bordercolor="#000000"
     borderopacity="0.25"
     inkscape:showpageshadow="2"
     inkscape:pageopacity="0.0"
     inkscape:pagecheckerboard="0"
     inkscape:deskcolor="#d1d1d1"
     inkscape:document-units="mm"
     inkscape:zoom="1.7637989"
     inkscape:cx="243.79197"
     inkscape:cy="88.445457"
     inkscape:window-width="1600"
     inkscape:window-height="873"
     inkscape:window-x="0"
     inkscape:window-y="27"
     inkscape:window-maximized="1"
     inkscape:current-layer="layer1" />
  <defs
     id="defs1" />
  <g
     inkscape:label="Layer 1"
     inkscape:groupmode="layer"
     id="layer1"
     transform="translate(-40.482676,-45.777083)">
    <path
       style="font-weight:600;font-size:8.72855px;font-family:'URW Gothic';-inkscape-font-specification:'URW Gothic, Semi-Bold';stroke-width:0.0919417"
       d="m 40.482676,50.194237 c 0.04707,0.423671 0.117686,0.651197 0.290292,0.878724 0.282447,0.376595 0.776729,0.604122 1.302394,0.604122 0.870878,0 1.553457,-0.651197 1.553457,-1.482846 0,-0.659042 -0.329521,-1.004255 -1.208244,-1.27101 -0.431516,-0.133378 -0.431516,-0.133378 -0.533511,-0.180453 -0.125531,-0.06277 -0.203989,-0.16476 -0.203989,-0.298138 0,-0.203989 0.172606,-0.360904 0.400133,-0.360904 0.219681,0 0.360904,0.117686 0.407979,0.345213 h 1.019946 c -0.01569,-0.36875 -0.101995,-0.588431 -0.31383,-0.823803 -0.274601,-0.305984 -0.68258,-0.478591 -1.114095,-0.478591 -0.815958,0 -1.443617,0.580586 -1.443617,1.325931 0,0.635506 0.337367,0.99641 1.208245,1.286702 0.392287,0.133378 0.431515,0.14907 0.541356,0.219681 0.125531,0.07846 0.196143,0.196143 0.196143,0.337367 0,0.243218 -0.196143,0.42367 -0.470745,0.42367 -0.305983,0 -0.478589,-0.156915 -0.580584,-0.525665 z m 3.922869,1.380851 h 1.043484 v -3.397207 h 0.62766 v -0.949335 h -0.62766 v -1.451463 h -1.043484 v 1.451463 h -0.509973 v 0.949335 h 0.509973 z m 4.221007,-4.448537 c -1.263165,0 -2.298803,1.027793 -2.298803,2.275267 0,1.255318 1.035638,2.275265 2.306649,2.275265 1.263165,0 2.314495,-1.019947 2.314495,-2.243883 0,-1.294548 -1.012101,-2.306649 -2.322341,-2.306649 z m 0.0078,0.957181 c 0.698272,0 1.263166,0.588431 1.263166,1.318086 0,0.729654 -0.564894,1.318084 -1.255319,1.318084 -0.706117,0 -1.263166,-0.58843 -1.263166,-1.333777 0,-0.713962 0.564894,-1.302393 1.255319,-1.302393 z m 3.012761,3.491356 h 1.074868 v -2.220345 l 1.522074,2.220345 h 1.325931 L 54.000857,49.4332 c 0.447208,-0.10984 0.666888,-0.211835 0.917952,-0.42367 0.400133,-0.337367 0.596276,-0.792421 0.596276,-1.373005 0,-0.596277 -0.211835,-1.090559 -0.611968,-1.427925 -0.376595,-0.321676 -0.79242,-0.431517 -1.58484,-0.431517 h -1.671118 z m 1.074868,-3.028457 v -1.741756 h 0.47859 c 0.502127,0 0.776729,0.05492 0.949335,0.20399 0.188298,0.149069 0.282446,0.376596 0.282446,0.659043 0,0.611968 -0.353057,0.878723 -1.184707,0.878723 z m 3.585503,3.028457 h 1.074868 v -2.204654 h 0.345212 c 0.823803,0 1.200399,-0.06277 1.522075,-0.258909 0.470744,-0.298139 0.761037,-0.878723 0.761037,-1.545612 0,-0.666888 -0.282447,-1.21609 -0.784575,-1.522074 -0.329521,-0.196144 -0.721809,-0.266756 -1.482846,-0.266756 h -1.435771 z m 1.074868,-3.232447 v -1.537766 h 0.360903 c 0.353059,0 0.517819,0.01569 0.68258,0.05492 0.31383,0.0863 0.502128,0.360905 0.502128,0.721809 0,0.282447 -0.125532,0.502127 -0.353059,0.627659 -0.16476,0.0863 -0.455053,0.133377 -0.878723,0.133377 z m 7.374998,1.522075 c 0.03138,-0.156915 0.03923,-0.251064 0.03923,-0.407979 0,-1.341622 -0.949334,-2.330186 -2.243882,-2.330186 -1.278856,0 -2.290957,1.012101 -2.290957,2.290958 0,1.271011 1.027793,2.259574 2.353723,2.259574 0.713963,0 1.271011,-0.258909 1.726064,-0.784574 0.16476,-0.203989 0.274601,-0.384442 0.345213,-0.604122 h -1.137633 c -0.266756,0.313829 -0.525665,0.431515 -0.957181,0.431515 -0.619814,0 -1.074867,-0.329521 -1.200399,-0.855186 z m -3.397207,-0.917952 c 0.16476,-0.564894 0.588431,-0.863032 1.208244,-0.863032 0.643351,0 1.067021,0.305985 1.200399,0.863032 z m 4.111165,2.628324 h 1.043484 v -2.416489 c -0.02353,-0.643351 0.305985,-1.004255 0.933644,-1.027793 v -1.004255 h -0.07846 c -0.447207,0 -0.666888,0.125532 -0.94149,0.525665 v -0.42367 h -0.95718 z"
       id="text1"
       aria-label="stoRPer" />
    <text
       xml:space="preserve"
       style="font-size:3.175px;fill:#000000;stroke-width:0.264583"
       x="52.368755"
       y="75.626465"
       id="text2"><tspan
         sodipodi:role="line"
         id="tspan2"
         style="stroke-width:0.264583"
         x="52.368755"
         y="75.626465" /></text>
  </g>
</svg>
